<svg width="32" height="32" viewBox="0 0 32 32" fill="none" xmlns="http://www.w3.org/2000/svg">
<path d="M18.6667 25.3333H13.3334C10.5044 25.3333 7.79126 24.2095 5.79089 22.2091C3.7905 20.2088 2.66669 17.4956 2.66669 14.6667V8H8.00002V14.6667C8.00002 16.0811 8.56192 17.4377 9.56215 18.4379C10.5623 19.4381 11.9189 20 13.3334 20V8H18.6667V14L18.7067 13.9947C20.168 13.8123 21.5125 13.1025 22.4873 11.9986C23.462 10.8946 23.9999 9.47269 24 8H29.3334L28.8774 10.2813C28.6042 11.6468 28.0229 12.9318 27.1776 14.0384C26.3324 15.145 25.2455 16.044 24 16.6667C25.2111 17.0702 26.2915 17.7918 27.128 18.7562C27.9645 19.7205 28.5263 20.892 28.7547 22.148L29.3334 25.3333H24C23.9999 23.8606 23.462 22.4387 22.4873 21.3348C21.5125 20.2309 20.168 19.521 18.7067 19.3387V25.3387L18.6667 25.3333Z" stroke="#F0E3CA" stroke-width="3" stroke-linecap="round" stroke-linejoin="round"/>
</svg>
