<svg width="144" height="27" viewBox="0 0 144 27" fill="none" xmlns="http://www.w3.org/2000/svg">
<path d="M15.0312 20.7656L0 14.5V11.3281L15.0312 5.04688V9.17188L5.75 12.9062L15.0312 16.625V20.7656ZM28.5156 0.046875L21.0156 26.3125H16.2344L23.7812 0.046875H28.5156ZM45.0469 15.3438C45.0469 17.8854 44.9844 19.6875 44.8594 20.75C44.7448 21.8021 44.3698 22.7656 43.7344 23.6406C43.1094 24.5156 42.2604 25.1875 41.1875 25.6562C40.1146 26.125 38.8646 26.3594 37.4375 26.3594C36.0833 26.3594 34.8646 26.1406 33.7812 25.7031C32.7083 25.2552 31.8438 24.5885 31.1875 23.7031C30.5312 22.8177 30.1406 21.8542 30.0156 20.8125C29.8906 19.7708 29.8281 17.9479 29.8281 15.3438V11.0156C29.8281 8.47396 29.8854 6.67708 30 5.625C30.125 4.5625 30.5 3.59375 31.125 2.71875C31.7604 1.84375 32.6146 1.17188 33.6875 0.703125C34.7604 0.234375 36.0104 0 37.4375 0C38.7917 0 40.0052 0.223958 41.0781 0.671875C42.1615 1.10938 43.0312 1.77083 43.6875 2.65625C44.3438 3.54167 44.7344 4.50521 44.8594 5.54688C44.9844 6.58854 45.0469 8.41146 45.0469 11.0156V15.3438ZM38.4688 7.03125C38.4688 5.85417 38.401 5.10417 38.2656 4.78125C38.1406 4.44792 37.875 4.28125 37.4688 4.28125C37.125 4.28125 36.8594 4.41667 36.6719 4.6875C36.4948 4.94792 36.4062 5.72917 36.4062 7.03125V18.8438C36.4062 20.3125 36.4635 21.2188 36.5781 21.5625C36.7031 21.9062 36.9844 22.0781 37.4219 22.0781C37.8698 22.0781 38.1562 21.8802 38.2812 21.4844C38.4062 21.0885 38.4688 20.1458 38.4688 18.6562V7.03125ZM128.875 5.04688L143.906 11.2969V14.4844L128.875 20.7656V16.6406L138.156 12.9062L128.875 9.1875V5.04688Z" fill="#FF8303"/>
<path d="M53.75 5.09375L53.6406 7C54.099 6.23958 54.6562 5.67188 55.3125 5.29688C55.9792 4.91146 56.7448 4.71875 57.6094 4.71875C58.6927 4.71875 59.5781 4.97396 60.2656 5.48438C60.9531 5.99479 61.3958 6.64062 61.5938 7.42188C61.7917 8.19271 61.8906 9.48438 61.8906 11.2969V25.8281H55.5781V11.4688C55.5781 10.0417 55.5312 9.17188 55.4375 8.85938C55.3438 8.54688 55.0833 8.39062 54.6562 8.39062C54.2083 8.39062 53.9271 8.57292 53.8125 8.9375C53.6979 9.29167 53.6406 10.25 53.6406 11.8125V25.8281H47.3281V5.09375H53.75ZM70.7344 2.32812V5.59375H72.4375V8.875H70.7344V19.9688C70.7344 21.3333 70.8021 22.0938 70.9375 22.25C71.0833 22.4062 71.6719 22.4844 72.7031 22.4844V25.8281H70.1562C68.7188 25.8281 67.6927 25.7708 67.0781 25.6562C66.4635 25.5312 65.9219 25.2552 65.4531 24.8281C64.9844 24.3906 64.6927 23.8958 64.5781 23.3438C64.4635 22.7812 64.4062 21.4688 64.4062 19.4062V8.875H63.0469V5.59375H64.4062V2.32812H70.7344ZM79.4688 13.125H73.5469V11.7344C73.5469 10.1302 73.7292 8.89583 74.0938 8.03125C74.4688 7.15625 75.2135 6.38542 76.3281 5.71875C77.4427 5.05208 78.8906 4.71875 80.6719 4.71875C82.8073 4.71875 84.4167 5.09896 85.5 5.85938C86.5833 6.60938 87.2344 7.53646 87.4531 8.64062C87.6719 9.73438 87.7812 11.9948 87.7812 15.4219V25.8281H81.6406V23.9844C81.2552 24.724 80.7552 25.2812 80.1406 25.6562C79.5365 26.0208 78.8125 26.2031 77.9688 26.2031C76.8646 26.2031 75.849 25.8958 74.9219 25.2812C74.0052 24.6562 73.5469 23.2969 73.5469 21.2031V19.5C73.5469 17.9479 73.7917 16.8906 74.2812 16.3281C74.7708 15.7656 75.9844 15.1094 77.9219 14.3594C79.9948 13.5469 81.1042 13 81.25 12.7188C81.3958 12.4375 81.4688 11.8646 81.4688 11C81.4688 9.91667 81.3854 9.21354 81.2188 8.89062C81.0625 8.55729 80.7969 8.39062 80.4219 8.39062C79.9948 8.39062 79.7292 8.53125 79.625 8.8125C79.5208 9.08333 79.4688 9.79688 79.4688 10.9531V13.125ZM81.4688 15.9688C80.4583 16.7083 79.8698 17.3281 79.7031 17.8281C79.5469 18.3281 79.4688 19.0469 79.4688 19.9844C79.4688 21.0573 79.5365 21.75 79.6719 22.0625C79.8177 22.375 80.099 22.5312 80.5156 22.5312C80.9115 22.5312 81.1667 22.4115 81.2812 22.1719C81.4062 21.9219 81.4688 21.276 81.4688 20.2344V15.9688ZM96.4531 0.53125V25.8281H89.9531V0.53125H96.4531ZM113.031 15.8281H104.859V20.3125C104.859 21.25 104.927 21.8542 105.062 22.125C105.198 22.3958 105.458 22.5312 105.844 22.5312C106.323 22.5312 106.641 22.3542 106.797 22C106.964 21.6354 107.047 20.9375 107.047 19.9062V17.1719H113.031V18.7031C113.031 19.9844 112.948 20.9688 112.781 21.6562C112.625 22.3438 112.25 23.0781 111.656 23.8594C111.062 24.6406 110.307 25.2292 109.391 25.625C108.484 26.0104 107.344 26.2031 105.969 26.2031C104.635 26.2031 103.458 26.0104 102.438 25.625C101.417 25.2396 100.62 24.7135 100.047 24.0469C99.4844 23.3698 99.0938 22.6302 98.875 21.8281C98.6562 21.0156 98.5469 19.8385 98.5469 18.2969V12.25C98.5469 10.4375 98.7917 9.01042 99.2812 7.96875C99.7708 6.91667 100.573 6.11458 101.688 5.5625C102.802 5 104.083 4.71875 105.531 4.71875C107.302 4.71875 108.76 5.05729 109.906 5.73438C111.062 6.40104 111.87 7.29167 112.328 8.40625C112.797 9.51042 113.031 11.0677 113.031 13.0781V15.8281ZM106.703 12.4531V10.9375C106.703 9.86458 106.646 9.17188 106.531 8.85938C106.417 8.54688 106.182 8.39062 105.828 8.39062C105.391 8.39062 105.12 8.52604 105.016 8.79688C104.911 9.05729 104.859 9.77083 104.859 10.9375V12.4531H106.703ZM127.609 5.09375L125.094 15L128.141 25.8281H122C121.396 23.099 120.938 20.75 120.625 18.7812C120.208 21.2396 119.755 23.5885 119.266 25.8281H113.984L116.703 15L113.984 5.09375H119.266C120.109 9.32292 120.562 11.724 120.625 12.2969C121.229 8.76562 121.688 6.36458 122 5.09375H127.609Z" fill="#F0E3CA"/>
</svg>
