<svg width="348" height="55" viewBox="0 0 348 55" fill="none" xmlns="http://www.w3.org/2000/svg">
<path d="M27.52 40.256L5.24521e-06 24.064V20.416L27.328 5.888V11.84L6.52801 22.272L27.52 33.92V40.256ZM38.848 45.568L33.152 43.008L52.928 0.192001L58.56 3.072L38.848 45.568ZM64.768 42.88V2.944H74.688C77.0347 2.944 78.9973 3.15733 80.576 3.584C82.1973 4.01067 83.5627 4.62933 84.672 5.44C85.824 6.25067 86.8267 7.25334 87.68 8.448C88.576 9.64267 89.3227 10.9867 89.92 12.48C90.56 13.9733 91.0293 15.616 91.328 17.408C91.6267 19.1573 91.776 21.056 91.776 23.104C91.7333 26.176 91.3493 28.928 90.624 31.36C89.9413 33.792 88.8747 35.8613 87.424 37.568C86.016 39.2747 84.2027 40.5973 81.984 41.536C79.7653 42.432 77.0773 42.88 73.92 42.88H64.768ZM70.848 37.888H73.792C76.6507 37.888 78.9333 37.312 80.64 36.16C82.3893 34.9653 83.648 33.28 84.416 31.104C85.2267 28.8853 85.632 26.2827 85.632 23.296C85.632 20.1387 85.2693 17.4293 84.544 15.168C83.8187 12.9067 82.6453 11.1573 81.024 9.92C79.4453 8.64 77.248 8 74.432 8H70.848V37.888ZM106.752 43.52C103.467 43.52 100.907 42.7733 99.072 41.28C97.28 39.744 96.384 37.76 96.384 35.328C96.384 33.7067 96.7467 32.256 97.472 30.976C98.24 29.6533 99.3067 28.5227 100.672 27.584C102.08 26.6453 103.765 25.92 105.728 25.408C107.691 24.8533 109.909 24.576 112.384 24.576C112.896 24.576 113.429 24.5973 113.984 24.64C114.581 24.64 115.2 24.6613 115.84 24.704C116.523 24.7467 117.205 24.7893 117.888 24.832L118.08 29.376C117.483 29.2907 116.843 29.2267 116.16 29.184C115.52 29.1413 114.88 29.12 114.24 29.12C113.6 29.12 113.003 29.12 112.448 29.12C110.784 29.12 109.333 29.248 108.096 29.504C106.901 29.7173 105.899 30.0587 105.088 30.528C104.32 30.9973 103.744 31.5733 103.36 32.256C102.976 32.9387 102.784 33.728 102.784 34.624C102.784 35.3493 102.912 35.9893 103.168 36.544C103.424 37.056 103.765 37.4613 104.192 37.76C104.661 38.0587 105.195 38.2933 105.792 38.464C106.432 38.592 107.115 38.656 107.84 38.656C109.248 38.656 110.485 38.4213 111.552 37.952C112.619 37.4827 113.515 36.8 114.24 35.904C115.008 34.9653 115.584 33.8133 115.968 32.448C116.352 31.04 116.544 29.3973 116.544 27.52C116.544 24.9173 116.245 22.8907 115.648 21.44C115.093 19.9893 114.261 18.9867 113.152 18.432C112.043 17.8773 110.656 17.6 108.992 17.6C107.627 17.6 106.304 17.8347 105.024 18.304C103.787 18.7307 102.571 19.5413 101.376 20.736L97.984 16.896C99.6053 15.36 101.376 14.2507 103.296 13.568C105.259 12.8853 107.264 12.544 109.312 12.544C111.189 12.544 112.917 12.7787 114.496 13.248C116.117 13.6747 117.525 14.4 118.72 15.424C119.957 16.448 120.896 17.8347 121.536 19.584C122.219 21.3333 122.56 23.552 122.56 26.24V42.816H115.904V39.168C115.349 40.0213 114.731 40.7467 114.048 41.344C113.365 41.8987 112.619 42.3467 111.808 42.688C111.04 42.9867 110.229 43.2 109.376 43.328C108.523 43.456 107.648 43.52 106.752 43.52ZM133.888 54.016C132.48 54.016 131.221 53.7813 130.112 53.312C129.003 52.8853 127.936 52.224 126.912 51.328L129.28 46.976L129.6 46.464L130.048 46.72C130.176 47.0187 130.325 47.296 130.496 47.552C130.709 47.8507 131.115 48.2133 131.712 48.64C132.053 48.768 132.416 48.8533 132.8 48.896C133.184 48.9813 133.568 49.024 133.952 49.024C134.933 49.024 135.765 48.768 136.448 48.256C137.131 47.7867 137.728 47.04 138.24 46.016C138.795 44.992 139.349 43.6693 139.904 42.048L146.048 24.128C146.688 22.2507 147.243 20.4373 147.712 18.688C148.224 16.896 148.544 15.0613 148.672 13.184H154.688C154.517 15.1467 154.069 17.1733 153.344 19.264C152.661 21.3547 151.957 23.3813 151.232 25.344L143.872 45.632C142.763 48.7467 141.376 50.9227 139.712 52.16C138.048 53.3973 136.107 54.016 133.888 54.016ZM128.128 13.184H134.592L143.552 36.48L140.352 43.52L128.128 13.184ZM320.32 40.256V34.112L341.248 22.272L320.384 11.84V5.888L347.84 20.416V24.064L320.32 40.256Z" fill="#F0E3CA"/>
<path d="M170.816 28.928L167.872 31.68V42.816H161.472V0H167.808H168.448V0.576C168.192 0.831999 168.021 1.10933 167.936 1.408C167.893 1.70667 167.872 2.21867 167.872 2.944V24.896L180.416 12.992C180.715 13.0773 181.035 13.1413 181.376 13.184C181.717 13.2267 182.059 13.2693 182.4 13.312C182.784 13.312 183.147 13.3333 183.488 13.376C183.829 13.376 184.128 13.376 184.384 13.376H187.264L175.296 25.024L188.992 42.816L181.568 43.072L170.816 28.928ZM205.824 43.456C203.136 43.456 200.747 42.816 198.656 41.536C196.565 40.2133 194.901 38.4 193.664 36.096C192.427 33.7493 191.808 31.0613 191.808 28.032C191.808 25.0453 192.427 22.4 193.664 20.096C194.901 17.7493 196.565 15.9147 198.656 14.592C200.747 13.2267 203.136 12.544 205.824 12.544C208.469 12.544 210.837 13.2267 212.928 14.592C215.061 15.9147 216.747 17.7493 217.984 20.096C219.221 22.4 219.84 25.0453 219.84 28.032C219.84 31.0187 219.221 33.6853 217.984 36.032C216.747 38.336 215.061 40.1493 212.928 41.472C210.837 42.7947 208.469 43.456 205.824 43.456ZM205.824 38.272C207.275 38.272 208.555 37.8453 209.664 36.992C210.816 36.096 211.712 34.88 212.352 33.344C212.992 31.808 213.312 30.016 213.312 27.968C213.312 25.8773 212.992 24.064 212.352 22.528C211.712 20.992 210.816 19.7973 209.664 18.944C208.555 18.0907 207.275 17.664 205.824 17.664C204.373 17.664 203.072 18.0907 201.92 18.944C200.811 19.7973 199.936 20.992 199.296 22.528C198.656 24.064 198.336 25.8773 198.336 27.968C198.336 30.016 198.656 31.808 199.296 33.344C199.936 34.88 200.811 36.096 201.92 36.992C203.072 37.8453 204.373 38.272 205.824 38.272ZM240.96 43.392C239.211 43.392 237.696 43.1147 236.416 42.56C235.179 41.9627 234.176 41.024 233.408 39.744C232.683 38.464 232.171 36.8 231.872 34.752C231.573 32.704 231.467 30.208 231.552 27.264L232.384 6.016L238.912 5.184L239.552 5.12L239.616 5.696C239.403 5.99467 239.211 6.29333 239.04 6.592C238.912 6.89067 238.805 7.40267 238.72 8.128L238.08 16.384L238.336 17.088L237.888 27.264C237.76 30.1653 237.845 32.4267 238.144 34.048C238.443 35.6267 238.955 36.736 239.68 37.376C240.405 37.9733 241.28 38.272 242.304 38.272C243.669 38.272 244.885 37.9947 245.952 37.44C247.061 36.8853 248.149 36.2027 249.216 35.392L250.624 40.128C249.173 41.1947 247.659 42.0053 246.08 42.56C244.501 43.1147 242.795 43.392 240.96 43.392ZM225.792 13.184H248.128L248.064 18.304H225.792V13.184ZM271.168 43.52C269.035 43.52 267.072 43.1787 265.28 42.496C263.488 41.8133 261.931 40.832 260.608 39.552C259.328 38.2293 258.325 36.608 257.6 34.688C256.875 32.768 256.512 30.592 256.512 28.16C256.512 25.6853 256.875 23.488 257.6 21.568C258.325 19.6053 259.307 17.9627 260.544 16.64C261.824 15.3173 263.296 14.2933 264.96 13.568C266.667 12.8427 268.48 12.48 270.4 12.48C272.064 12.48 273.643 12.7787 275.136 13.376C276.672 13.9733 277.995 14.8693 279.104 16.064C280.256 17.216 281.152 18.688 281.792 20.48C282.475 22.272 282.816 24.3627 282.816 26.752C282.816 27.1787 282.816 27.6693 282.816 28.224C282.816 28.736 282.795 29.184 282.752 29.568H262.656C262.741 31.104 263.04 32.448 263.552 33.6C264.064 34.7093 264.704 35.6267 265.472 36.352C266.283 37.0773 267.2 37.6107 268.224 37.952C269.248 38.2933 270.315 38.464 271.424 38.464C272.405 38.464 273.301 38.3787 274.112 38.208C274.965 37.9947 275.776 37.6747 276.544 37.248C277.312 36.8213 278.016 36.2453 278.656 35.52L281.984 38.784C281.088 39.8507 280.085 40.7467 278.976 41.472C277.867 42.1547 276.651 42.6667 275.328 43.008C274.048 43.3493 272.661 43.52 271.168 43.52ZM262.784 24.768H276.608C276.608 23.5733 276.459 22.528 276.16 21.632C275.861 20.736 275.413 19.968 274.816 19.328C274.261 18.688 273.579 18.2187 272.768 17.92C271.957 17.5787 271.061 17.408 270.08 17.408C269.141 17.408 268.267 17.5573 267.456 17.856C266.688 18.1547 265.984 18.6027 265.344 19.2C264.704 19.7973 264.149 20.5653 263.68 21.504C263.253 22.4 262.955 23.488 262.784 24.768ZM288 42.816L298.304 27.968L288.192 13.184H294.976L301.76 22.976L308.16 13.184H314.624L305.152 27.648L315.84 42.816H308.928L301.696 32.704L294.976 42.816H288Z" fill="#b702ff"/>
</svg>
